<?xml version="1.0" encoding="UTF-8" standalone="no"?>
<svg xmlns:xlink="http://www.w3.org/1999/xlink" height="119.0px" width="439.7px" xmlns="http://www.w3.org/2000/svg">
  <g transform="matrix(1.0, 0.0, 0.0, 1.0, 0.0, 0.0)">
    <path d="M411.05 9.1 Q416.0 9.4 418.85 10.8 420.4 11.5 421.5 12.8 422.5 13.95 422.95 15.35 423.45 16.8 423.35 18.3 L422.7 26.05 Q422.05 34.8 421.75 40.55 L421.65 42.3 422.7 42.3 Q425.3 42.3 428.85 43.15 431.75 43.85 433.85 44.75 438.1 46.6 439.25 50.0 440.0 52.05 439.5 54.2 L439.3 54.9 437.95 58.85 Q435.85 64.15 432.8 67.85 L432.75 67.9 Q429.15 72.2 424.4 74.2 420.85 75.65 416.95 75.65 L413.25 75.3 413.15 75.3 Q409.4 74.6 406.2 72.4 403.45 73.85 400.4 74.55 L394.25 75.3 Q389.9 75.3 385.85 73.9 381.8 72.55 378.35 69.95 377.6 71.7 376.15 72.85 374.25 74.35 371.3 74.9 L366.05 75.3 360.8 74.9 Q356.25 74.05 354.3 71.0 353.15 69.15 353.15 66.95 L353.15 50.55 351.5 50.4 350.7 50.5 350.6 50.6 350.3 51.1 350.35 66.45 Q350.35 68.7 349.2 70.5 347.25 73.55 342.7 74.35 L337.45 74.8 332.2 74.35 Q327.05 73.45 325.3 69.8 321.4 73.7 316.35 75.8 311.3 77.9 305.75 77.9 297.5 77.9 290.55 73.3 283.7 68.8 280.4 61.35 L280.35 61.45 279.2 64.0 277.35 66.75 277.3 66.8 Q275.55 68.95 273.15 70.3 L273.1 70.3 Q271.5 71.2 269.7 71.7 L266.0 72.2 265.75 72.2 Q263.55 72.15 261.65 71.5 260.6 71.15 259.35 70.45 L258.95 70.25 256.4 68.4 256.4 68.35 253.6 65.45 252.55 64.15 Q250.45 66.7 247.8 68.6 243.7 71.4 238.95 72.0 L235.8 72.15 235.75 72.15 Q232.55 72.15 229.45 71.35 226.3 70.55 223.55 68.95 219.9 66.9 217.05 63.8 207.15 70.4 198.3 73.15 L198.25 73.15 Q193.15 74.7 188.7 74.7 L188.65 74.7 Q185.1 74.7 181.45 73.75 177.75 72.85 174.3 71.15 L174.3 71.1 Q171.85 69.9 169.6 68.2 167.65 70.85 163.4 71.6 L158.15 72.0 152.9 71.6 Q150.1 71.1 148.3 69.75 146.8 68.65 146.05 67.05 L145.45 68.05 Q143.8 70.4 140.4 71.35 L133.9 72.0 128.65 71.6 Q126.95 71.3 125.5 70.6 124.05 71.35 122.2 71.65 L116.95 72.05 111.7 71.65 Q108.6 71.1 106.7 69.55 105.25 68.3 104.55 66.5 100.95 69.55 96.55 71.2 92.1 72.85 87.4 72.85 L86.2 72.85 86.25 79.55 Q86.25 81.75 85.05 83.6 83.9 85.4 81.85 86.45 L78.55 87.45 73.3 87.85 68.05 87.45 Q63.5 86.65 61.6 83.6 60.4 81.75 60.4 79.55 L60.45 73.1 Q55.55 76.5 50.45 78.5 44.2 81.0 38.1 81.0 L38.05 81.0 Q29.5 81.0 21.8 78.3 15.95 76.25 10.95 72.75 7.7 70.5 5.0 67.8 L1.75 64.1 1.35 63.55 1.3 63.5 Q0.1 61.7 0.0 59.5 -0.15 55.9 3.2 52.65 4.8 51.1 7.1 49.55 L5.2 47.15 5.1 47.0 Q4.1 45.35 3.65 43.5 L3.4 42.15 3.4 42.1 3.35 42.0 3.3 41.5 3.25 40.35 3.25 40.0 Q3.35 38.0 3.9 36.3 L3.9 36.25 4.05 35.9 4.7 34.4 4.7 34.35 5.55 32.85 5.6 32.8 7.0 30.85 Q8.65 28.75 10.8 26.55 16.95 20.35 23.6 16.95 30.45 13.55 37.2 13.5 L37.25 13.5 Q46.1 13.55 56.3 17.95 60.8 19.9 64.55 22.25 L64.75 22.4 65.45 22.9 68.0 22.2 73.2 21.8 77.5 22.05 81.85 20.75 87.4 20.15 Q92.25 20.15 96.75 21.85 101.25 23.6 104.85 26.8 105.45 25.6 106.4 24.7 L103.7 22.0 Q101.05 19.35 101.05 15.6 101.05 11.85 103.7 9.2 L110.25 2.65 Q111.5 1.35 113.15 0.7 114.8 0.0 116.65 0.0 118.45 0.0 120.1 0.7 121.75 1.35 123.05 2.65 L129.55 9.2 Q132.2 11.85 132.2 15.6 132.2 19.35 129.55 22.0 L129.35 22.2 133.9 21.9 Q139.35 21.9 142.25 23.25 L142.7 23.45 145.5 23.3 Q149.35 23.3 152.9 24.25 156.45 25.2 159.45 27.05 L159.55 27.1 Q162.2 28.7 164.35 31.0 L166.0 29.0 Q169.55 25.1 174.5 22.95 179.45 20.75 184.85 20.75 L184.95 20.75 190.05 21.35 194.0 22.45 194.05 22.5 Q197.1 23.55 200.15 25.15 L203.0 26.8 Q204.55 27.85 205.75 29.25 L207.7 32.35 Q208.55 34.1 208.8 36.0 209.45 32.1 211.2 28.35 213.15 24.15 216.35 20.15 219.45 16.3 223.0 13.35 L223.6 12.85 Q224.6 12.05 225.8 11.65 L228.2 11.25 Q230.35 11.25 232.3 12.4 234.95 13.95 238.05 17.95 239.9 20.25 241.0 22.35 242.9 26.0 242.15 29.1 243.45 28.1 244.75 27.5 L244.8 27.5 244.85 27.45 Q247.5 26.2 250.45 26.2 L250.5 26.2 254.05 26.7 Q255.8 27.2 257.35 28.1 259.35 29.3 260.85 31.05 L260.95 31.15 261.95 32.45 262.45 33.15 Q265.8 26.05 270.75 21.1 279.75 12.15 292.45 7.75 298.1 5.8 304.0 4.9 L312.75 4.25 315.3 4.3 326.8 5.45 330.35 5.95 337.3 6.85 341.2 7.15 341.35 7.15 342.45 6.9 344.6 6.2 344.7 6.2 346.85 5.25 347.3 5.0 347.35 4.95 Q349.05 4.0 351.05 4.0 353.5 4.0 355.55 5.45 357.65 6.9 359.7 10.1 L360.75 9.85 366.0 9.45 371.25 9.85 Q375.85 10.65 377.75 13.7 378.95 15.55 378.95 17.75 L378.95 27.45 Q382.25 25.05 386.15 23.8 390.1 22.55 394.2 22.55 L397.1 22.7 397.55 16.45 Q397.75 13.95 399.35 12.1 401.25 9.9 404.55 9.3 L408.5 9.0 411.05 9.1" fill="#4680c2" fill-rule="evenodd" stroke="none"/>
    <path d="M333.5 31.6 L337.5 31.35 341.45 31.6 Q343.1 31.9 343.1 32.35 L343.05 32.4 343.05 33.7 Q346.95 31.95 351.55 31.95 L354.65 32.15 354.7 32.1 Q355.15 32.2 355.25 33.85 355.35 35.5 355.05 37.8 L354.3 41.7 Q353.8 43.3 353.4 43.25 L353.35 43.25 351.55 43.1 Q349.1 43.1 347.35 44.0 346.0 44.7 345.0 46.0 344.2 46.95 343.65 48.25 L343.15 49.65 343.15 49.7 343.05 49.7 343.05 66.4 343.1 66.45 Q343.1 66.9 341.45 67.2 L337.5 67.45 333.5 67.2 Q331.85 66.9 331.85 66.45 L331.9 66.4 331.9 32.4 331.85 32.35 Q331.85 31.9 333.5 31.6 M350.9 11.4 L351.0 11.3 Q351.35 11.1 352.4 12.4 L354.6 15.7 Q355.7 17.75 356.25 19.35 356.8 20.9 356.45 21.1 L356.4 21.15 Q354.35 22.25 351.65 23.35 L346.95 24.85 341.3 25.6 335.3 25.2 328.15 24.3 320.8 23.35 314.4 22.75 312.8 22.7 306.15 23.3 Q302.2 23.9 298.55 25.2 289.85 28.2 283.9 34.15 280.65 37.4 278.45 42.85 277.55 45.05 276.7 47.9 L275.4 52.8 274.6 55.85 273.65 58.7 272.9 60.4 271.75 62.1 269.55 63.95 Q267.9 64.9 266.05 64.9 L266.0 64.9 263.95 64.55 262.75 63.95 261.3 62.9 259.25 60.75 255.05 55.2 251.75 50.35 249.3 55.85 247.0 59.4 Q245.5 61.3 243.65 62.6 241.05 64.35 238.1 64.7 L235.85 64.85 Q231.2 64.85 227.2 62.6 223.55 60.55 220.85 56.85 L219.55 54.8 219.5 54.8 Q216.1 55.6 213.65 57.3 204.35 63.65 196.2 66.15 192.1 67.4 188.75 67.4 183.2 67.35 177.65 64.6 171.7 61.55 168.65 56.65 167.5 54.75 166.85 52.65 166.2 50.45 166.2 48.15 166.15 44.05 167.55 40.4 168.9 36.75 171.4 33.95 173.95 31.15 177.45 29.6 181.05 28.05 185.0 28.05 187.95 28.1 191.7 29.35 194.3 30.3 196.8 31.6 L199.0 32.9 Q200.45 33.85 201.15 35.4 201.7 36.6 201.7 37.95 201.7 39.5 201.0 40.8 L191.75 55.8 192.95 55.45 198.3 53.35 203.4 50.6 207.25 48.1 Q211.15 45.45 216.05 44.15 215.8 42.3 215.8 40.45 215.8 35.95 217.9 31.4 219.45 27.95 222.1 24.7 224.85 21.3 228.05 18.7 L228.1 18.6 Q228.45 18.35 229.7 19.5 L232.35 22.4 Q233.8 24.25 234.55 25.75 235.35 27.2 235.0 27.45 L234.85 27.6 234.3 28.05 232.4 29.9 230.05 32.7 Q228.75 34.45 228.05 36.05 226.95 38.4 226.95 40.45 L227.15 43.0 227.15 43.15 227.45 44.65 Q227.85 46.65 228.7 48.3 229.5 49.9 230.55 51.1 L232.65 52.85 Q234.15 53.7 235.85 53.7 L236.75 53.65 237.0 53.55 237.45 53.25 238.95 51.45 Q240.4 49.15 242.05 44.2 L242.9 41.6 243.8 39.1 244.45 37.7 245.4 36.15 246.35 35.15 247.95 34.1 Q249.2 33.5 250.5 33.55 L252.25 33.75 Q253.0 34.0 253.65 34.4 254.6 34.9 255.4 35.85 L256.15 36.85 259.05 41.15 264.45 49.15 264.7 49.5 266.3 43.65 Q267.45 40.0 268.8 37.0 271.65 30.6 276.0 26.25 283.75 18.5 294.9 14.65 299.5 13.05 304.35 12.25 L312.8 11.55 315.0 11.6 325.9 12.7 336.5 14.1 341.3 14.45 344.15 14.05 347.35 13.05 350.9 11.4 M387.0 45.85 Q386.4 47.3 386.4 48.9 386.4 50.55 387.0 52.0 387.6 53.4 388.7 54.5 389.8 55.6 391.2 56.2 392.65 56.8 394.25 56.8 395.9 56.8 397.35 56.2 398.75 55.6 399.85 54.5 400.95 53.4 401.55 52.0 402.15 50.55 402.15 48.9 402.15 47.3 401.55 45.85 400.95 44.45 399.85 43.35 398.75 42.25 397.35 41.65 395.9 41.05 394.25 41.05 392.65 41.05 391.2 41.65 389.8 42.25 388.7 43.35 387.6 44.45 387.0 45.85 M370.05 17.05 Q371.7 17.35 371.7 17.75 L371.65 17.8 371.7 17.8 371.7 66.85 371.7 66.95 Q371.7 67.4 370.1 67.7 L366.1 67.95 362.15 67.7 Q360.5 67.4 360.5 66.95 L360.5 17.85 360.45 17.75 Q360.45 17.35 362.1 17.05 L366.05 16.75 370.05 17.05 M406.6 16.4 Q408.25 16.2 410.55 16.35 L414.5 16.95 Q416.1 17.35 416.1 17.75 L416.05 17.85 415.5 25.5 414.5 40.15 414.2 47.4 414.25 47.85 Q414.25 51.1 414.95 53.6 415.25 55.0 415.8 55.95 416.4 56.95 417.0 56.95 L418.4 56.1 419.7 54.5 420.95 51.75 421.5 50.0 421.5 49.9 Q421.6 49.5 423.3 49.6 L427.2 50.25 Q429.45 50.8 431.0 51.45 432.5 52.1 432.4 52.55 L432.4 52.6 431.2 56.2 Q429.5 60.4 427.2 63.2 424.75 66.15 421.6 67.45 419.45 68.35 417.0 68.35 L414.6 68.1 Q412.75 67.8 411.05 66.8 409.5 65.9 408.25 64.6 L407.05 63.05 Q404.45 65.4 401.2 66.65 397.9 68.0 394.25 68.0 390.4 68.0 386.85 66.5 383.45 65.05 380.8 62.4 378.15 59.75 376.7 56.35 375.2 52.8 375.2 48.9 375.2 45.05 376.7 41.5 378.15 38.05 380.8 35.45 383.45 32.8 386.85 31.35 390.4 29.85 394.25 29.85 399.4 29.85 403.8 32.4 L404.0 29.45 404.9 17.05 404.9 17.0 Q404.95 16.55 406.6 16.4 M324.6 58.15 Q323.05 61.8 320.2 64.6 317.4 67.45 313.75 69.0 309.95 70.6 305.8 70.6 301.65 70.6 297.9 69.0 294.2 67.45 291.4 64.6 288.6 61.8 287.05 58.15 285.45 54.35 285.45 50.2 285.45 46.05 287.05 42.3 288.6 38.65 291.4 35.8 294.25 33.0 297.9 31.45 301.65 29.85 305.8 29.85 309.95 29.85 313.75 31.45 317.4 33.0 320.2 35.8 323.05 38.6 324.6 42.3 326.2 46.05 326.2 50.2 326.2 54.35 324.6 58.15 M299.3 43.7 Q298.0 45.0 297.35 46.65 296.6 48.35 296.6 50.2 296.6 52.1 297.35 53.8 298.0 55.4 299.3 56.7 300.6 58.0 302.25 58.7 303.95 59.4 305.8 59.4 307.7 59.4 309.4 58.7 311.0 58.0 312.3 56.7 313.6 55.4 314.3 53.8 315.0 52.1 315.0 50.2 315.0 48.35 314.3 46.65 313.6 45.0 312.3 43.7 311.0 42.4 309.4 41.7 307.7 41.0 305.8 41.0 303.95 41.0 302.25 41.7 300.6 42.4 299.3 43.7 M178.0 44.25 Q177.35 46.0 177.35 48.15 177.35 49.15 177.8 50.1 178.25 51.15 179.25 52.15 L180.25 53.1 188.35 40.05 186.75 39.55 185.0 39.25 Q181.75 39.25 179.65 41.5 178.6 42.65 178.0 44.25 M162.5 41.5 Q163.8 44.9 163.8 49.0 L163.8 63.6 163.85 63.7 Q163.85 64.1 162.2 64.4 L158.2 64.65 154.25 64.4 Q152.6 64.1 152.6 63.7 L152.65 63.6 152.65 49.0 Q152.65 46.1 151.5 44.35 L150.35 43.15 Q149.7 42.6 148.75 42.25 L145.55 41.75 143.45 41.95 140.3 42.35 139.6 42.5 139.6 63.75 139.55 63.75 Q139.45 64.15 137.8 64.4 L133.95 64.65 130.0 64.4 Q128.35 64.1 128.35 63.7 L128.4 63.55 128.4 30.35 128.35 30.2 128.4 30.05 128.4 30.0 128.45 30.0 Q128.85 29.65 130.35 29.45 L133.95 29.2 137.55 29.45 Q139.05 29.65 139.45 30.0 L139.6 30.0 139.6 31.2 141.6 30.9 145.55 30.6 Q151.35 30.6 155.75 33.3 158.05 34.7 159.75 36.8 161.5 38.9 162.5 41.5 M124.45 16.8 L117.9 23.35 Q117.4 23.9 116.7 23.9 115.95 23.9 115.45 23.35 L108.9 16.8 Q108.4 16.3 108.4 15.6 108.4 14.85 108.9 14.35 L115.45 7.8 Q115.95 7.3 116.7 7.3 117.4 7.3 117.9 7.8 L124.45 14.35 Q124.95 14.85 124.95 15.6 124.95 16.3 124.45 16.8 M46.1 22.05 Q49.55 22.95 53.45 24.65 56.1 25.8 58.6 27.2 L60.7 28.45 Q61.05 28.7 60.4 30.2 59.75 31.75 58.5 33.7 L56.15 36.9 Q55.0 38.1 54.65 37.9 L54.55 37.75 54.35 37.65 53.2 36.95 Q51.2 35.85 48.95 34.9 46.1 33.6 43.25 32.85 39.9 31.95 37.3 32.0 35.45 32.0 33.15 32.9 31.05 33.8 28.55 35.55 L26.6 37.15 Q34.95 39.1 39.9 40.8 45.55 42.7 52.05 46.25 57.35 49.1 60.7 51.55 L62.25 52.75 63.2 53.75 63.6 54.35 64.1 55.3 Q64.45 56.25 64.45 57.35 L64.3 58.8 64.0 59.6 63.6 60.4 62.95 61.25 61.85 62.5 58.55 65.4 Q53.35 69.55 47.85 71.75 42.85 73.7 38.15 73.7 L38.1 73.7 Q31.05 73.7 24.7 71.55 19.5 69.8 15.2 66.75 12.05 64.6 9.65 62.05 L7.45 59.45 7.4 59.4 Q7.15 59.05 8.35 57.9 9.55 56.7 11.5 55.4 L14.8 53.5 Q16.25 52.8 16.6 53.05 L16.8 53.25 17.65 54.25 21.55 57.6 Q28.7 62.5 38.15 62.55 40.1 62.55 42.5 61.75 44.75 61.05 47.0 59.75 L50.0 57.9 49.35 57.55 Q46.3 55.75 43.05 54.2 39.35 52.4 36.25 51.35 32.75 50.15 27.15 48.75 L18.7 46.8 15.15 45.9 14.2 45.6 13.75 45.4 13.0 44.95 12.3 44.4 11.4 43.25 Q10.95 42.45 10.8 41.7 L10.65 40.85 10.6 40.35 10.6 40.3 10.75 39.05 10.95 38.4 11.3 37.65 11.8 36.8 12.85 35.35 16.05 31.7 Q21.4 26.3 26.95 23.5 32.25 20.8 37.3 20.8 41.5 20.85 46.1 22.05 M87.45 38.6 Q85.85 38.6 84.35 39.2 82.95 39.85 81.85 40.9 80.75 42.0 80.15 43.45 79.55 44.9 79.55 46.5 79.55 48.1 80.15 49.6 80.75 51.0 81.85 52.05 82.95 53.15 84.35 53.75 85.85 54.4 87.45 54.4 89.05 54.4 90.5 53.75 L93.0 52.05 Q94.1 51.0 94.7 49.6 95.35 48.1 95.35 46.5 95.35 44.9 94.7 43.45 94.1 42.0 93.0 40.9 L90.5 39.2 Q89.05 38.6 87.45 38.6 M94.85 28.95 Q98.3 30.4 100.9 33.0 103.55 35.65 105.0 39.1 106.5 42.6 106.5 46.5 106.5 50.4 105.0 53.9 103.55 57.35 100.9 59.95 98.3 62.6 94.85 64.05 91.3 65.55 87.45 65.55 84.55 65.55 81.85 64.75 80.35 64.25 78.95 63.55 L78.95 79.55 Q78.95 79.95 77.35 80.25 L73.35 80.55 69.4 80.25 Q67.75 79.95 67.75 79.55 L67.8 79.5 67.8 30.3 67.7 30.1 Q67.7 29.7 69.3 29.4 L73.25 29.1 76.4 29.3 78.4 29.7 Q80.05 28.8 81.85 28.3 84.55 27.45 87.45 27.45 91.3 27.45 94.85 28.95 M122.7 30.1 L122.65 30.3 122.65 63.75 122.6 63.75 Q122.6 64.2 120.95 64.45 L117.0 64.75 113.05 64.45 Q111.4 64.2 111.4 63.75 L111.45 63.6 111.45 30.05 111.55 30.05 Q111.7 29.65 113.3 29.35 L117.1 29.1 121.1 29.4 Q122.7 29.7 122.7 30.1" fill="#ffffff" fill-rule="evenodd" stroke="none"/>
  </g>
</svg>
