<?xml version="1.0" encoding="UTF-8" standalone="no"?>
<svg xmlns:xlink="http://www.w3.org/1999/xlink" height="119.0px" width="439.7px" xmlns="http://www.w3.org/2000/svg">
  <g transform="matrix(1.0, 0.0, 0.0, 1.0, 0.0, 0.0)">
    <path d="M411.05 9.1 Q416.0 9.4 418.85 10.8 420.4 11.5 421.5 12.8 422.5 13.95 422.95 15.35 423.45 16.8 423.35 18.3 L422.7 26.05 Q422.05 34.8 421.75 40.55 L421.65 42.3 422.7 42.3 Q425.3 42.3 428.85 43.15 431.75 43.85 433.85 44.75 438.1 46.6 439.25 50.0 440.0 52.05 439.5 54.2 L439.3 54.9 437.95 58.85 Q435.85 64.15 432.8 67.85 L432.75 67.9 Q429.15 72.2 424.4 74.2 420.85 75.65 416.95 75.65 L413.25 75.3 413.15 75.3 Q409.4 74.6 406.2 72.4 403.45 73.85 400.4 74.55 L394.25 75.3 Q389.9 75.3 385.85 73.9 381.8 72.55 378.35 69.95 377.6 71.7 376.15 72.85 374.25 74.35 371.3 74.9 L366.05 75.3 360.8 74.9 Q356.25 74.05 354.3 71.0 353.15 69.15 353.15 66.95 L353.15 50.55 351.5 50.4 350.7 50.5 350.6 50.6 350.3 51.1 350.35 66.45 Q350.35 68.7 349.2 70.5 347.25 73.55 342.7 74.35 L337.45 74.8 332.2 74.35 Q327.05 73.45 325.3 69.8 321.4 73.7 316.35 75.8 311.3 77.9 305.75 77.9 297.5 77.9 290.55 73.3 283.7 68.8 280.4 61.35 L280.35 61.45 279.2 64.0 277.35 66.75 277.3 66.8 Q275.55 68.95 273.15 70.3 L273.1 70.3 Q271.5 71.2 269.7 71.7 L266.0 72.2 265.75 72.2 Q263.55 72.15 261.65 71.5 260.6 71.15 259.35 70.45 L258.95 70.25 256.4 68.4 256.4 68.35 253.6 65.45 252.55 64.15 Q250.45 66.7 247.8 68.6 243.7 71.4 238.95 72.0 L235.8 72.15 235.75 72.15 Q232.55 72.15 229.45 71.35 226.3 70.55 223.55 68.95 219.9 66.9 217.05 63.8 207.15 70.4 198.3 73.15 L198.25 73.15 Q193.15 74.7 188.7 74.7 L188.65 74.7 Q185.1 74.7 181.45 73.75 177.75 72.85 174.3 71.15 L174.3 71.1 Q171.85 69.9 169.6 68.2 167.65 70.85 163.4 71.6 L158.15 72.0 152.9 71.6 Q150.1 71.1 148.3 69.75 146.8 68.65 146.05 67.05 L145.45 68.05 Q143.8 70.4 140.4 71.35 L133.9 72.0 128.65 71.6 Q126.95 71.3 125.5 70.6 124.05 71.35 122.2 71.65 L116.95 72.05 111.7 71.65 Q108.6 71.1 106.7 69.55 105.25 68.3 104.55 66.5 100.95 69.55 96.55 71.2 92.1 72.85 87.4 72.85 L86.2 72.85 86.25 79.55 Q86.25 81.75 85.05 83.6 83.9 85.4 81.85 86.45 L78.55 87.45 73.3 87.85 68.05 87.45 Q63.5 86.65 61.6 83.6 60.4 81.75 60.4 79.55 L60.45 73.1 Q55.55 76.5 50.45 78.5 44.2 81.0 38.1 81.0 L38.05 81.0 Q29.5 81.0 21.8 78.3 15.95 76.25 10.95 72.75 7.7 70.5 5.0 67.8 L1.75 64.1 1.35 63.55 1.3 63.5 Q0.1 61.7 0.0 59.5 -0.15 55.9 3.2 52.65 4.8 51.1 7.1 49.55 L5.2 47.15 5.1 47.0 Q4.1 45.35 3.65 43.5 L3.4 42.15 3.4 42.1 3.35 42.0 3.3 41.5 3.25 40.35 3.25 40.0 Q3.35 38.0 3.9 36.3 L3.9 36.25 4.05 35.9 4.7 34.4 4.7 34.35 5.55 32.85 5.6 32.8 7.0 30.85 Q8.65 28.75 10.8 26.55 16.95 20.35 23.6 16.95 30.45 13.55 37.2 13.5 L37.25 13.5 Q46.1 13.55 56.3 17.95 60.8 19.9 64.55 22.25 L64.75 22.4 65.45 22.9 68.0 22.2 73.2 21.8 77.5 22.05 81.85 20.75 87.4 20.15 Q92.25 20.15 96.75 21.85 101.25 23.6 104.85 26.8 105.45 25.6 106.4 24.7 L103.7 22.0 Q101.05 19.35 101.05 15.6 101.05 11.85 103.7 9.2 L110.25 2.65 Q111.5 1.35 113.15 0.7 114.8 0.0 116.65 0.0 118.45 0.0 120.1 0.7 121.75 1.35 123.05 2.65 L129.55 9.2 Q132.2 11.85 132.2 15.6 132.2 19.35 129.55 22.0 L129.35 22.2 133.9 21.9 Q139.35 21.9 142.25 23.25 L142.7 23.45 145.5 23.3 Q149.35 23.3 152.9 24.25 156.45 25.2 159.45 27.05 L159.55 27.1 Q162.2 28.7 164.35 31.0 L166.0 29.0 Q169.55 25.1 174.5 22.95 179.45 20.75 184.85 20.75 L184.95 20.75 190.05 21.35 194.0 22.45 194.05 22.5 Q197.1 23.55 200.15 25.15 L203.0 26.8 Q204.55 27.85 205.75 29.25 L207.7 32.35 Q208.55 34.1 208.8 36.0 209.45 32.1 211.2 28.35 213.15 24.15 216.35 20.15 219.45 16.3 223.0 13.35 L223.6 12.85 Q224.6 12.05 225.8 11.65 L228.2 11.25 Q230.35 11.25 232.3 12.4 234.95 13.95 238.05 17.95 239.9 20.25 241.0 22.35 242.9 26.0 242.15 29.1 243.45 28.1 244.75 27.5 L244.8 27.5 244.85 27.45 Q247.5 26.2 250.45 26.2 L250.5 26.2 254.05 26.7 Q255.8 27.2 257.35 28.1 259.35 29.3 260.85 31.05 L260.95 31.15 261.95 32.45 262.45 33.15 Q265.8 26.05 270.75 21.1 279.75 12.15 292.45 7.75 298.1 5.8 304.0 4.9 L312.75 4.25 315.3 4.3 326.8 5.45 330.35 5.95 337.3 6.85 341.2 7.15 341.35 7.15 342.45 6.9 344.6 6.2 344.7 6.2 346.85 5.25 347.3 5.0 347.35 4.95 Q349.05 4.0 351.05 4.0 353.5 4.0 355.55 5.45 357.65 6.9 359.7 10.1 L360.75 9.85 366.0 9.45 371.25 9.85 Q375.85 10.65 377.75 13.7 378.95 15.55 378.95 17.75 L378.95 27.45 Q382.25 25.05 386.15 23.8 390.1 22.55 394.2 22.55 L397.1 22.7 397.55 16.45 Q397.75 13.95 399.35 12.1 401.25 9.9 404.55 9.3 L408.5 9.0 411.05 9.1" fill="#4680c2" fill-rule="evenodd" stroke="none"/>
    <path d="M413.55 107.2 L405.45 107.2 Q405.65 110.05 408.45 110.15 410.0 110.05 411.1 109.3 412.25 108.55 413.55 108.45 414.35 108.45 414.85 109.0 415.35 109.6 415.35 110.3 415.4 111.55 413.65 112.5 411.95 113.5 407.85 113.55 404.35 113.55 402.05 111.7 399.75 109.85 399.65 105.9 399.75 102.0 402.05 100.15 404.35 98.3 407.85 98.3 412.55 98.5 414.45 100.75 416.3 103.0 416.25 104.8 416.3 107.35 413.55 107.2 M409.95 102.25 Q409.2 101.65 408.1 101.65 407.1 101.65 406.35 102.25 405.55 102.85 405.45 104.3 L410.75 104.3 Q410.75 102.85 409.95 102.25 M395.85 99.95 Q397.15 101.5 397.15 103.95 L397.15 110.75 Q396.95 113.6 394.25 113.55 391.55 113.6 391.35 110.75 L391.35 105.3 Q391.4 102.75 389.5 102.85 388.7 102.85 388.15 103.55 387.6 104.25 387.55 105.45 L387.55 110.75 Q387.35 113.6 384.65 113.55 381.95 113.6 381.8 110.75 L381.8 105.3 Q381.8 102.75 379.9 102.85 379.1 102.85 378.55 103.55 378.0 104.25 377.95 105.45 L377.95 110.75 Q377.8 113.6 375.05 113.55 372.35 113.6 372.2 110.75 L372.2 101.05 Q372.15 98.35 374.95 98.3 377.4 98.35 377.55 101.05 L377.6 101.05 Q379.05 98.35 382.35 98.3 383.8 98.3 385.0 99.0 386.25 99.65 386.7 101.15 388.5 98.2 391.55 98.3 394.5 98.35 395.85 99.95 M182.35 98.3 Q185.05 98.25 185.25 101.1 L185.25 106.55 Q185.25 108.95 187.4 108.95 189.5 108.85 189.5 106.15 L189.5 101.1 Q189.7 98.25 192.4 98.3 195.1 98.25 195.25 101.1 L195.25 110.8 Q195.3 113.5 192.5 113.55 190.05 113.5 189.95 110.8 L189.85 110.8 Q188.4 113.5 185.1 113.55 182.15 113.5 180.8 111.9 179.45 110.3 179.5 107.85 L179.5 101.1 Q179.65 98.25 182.35 98.3 M176.15 96.3 L176.15 110.7 Q176.0 113.55 173.25 113.55 170.5 113.55 170.35 110.7 L170.35 100.95 170.3 100.95 167.4 111.75 Q167.05 113.7 164.9 113.55 162.8 113.7 162.4 111.75 L159.5 100.95 159.45 100.95 159.45 110.7 Q159.3 113.55 156.55 113.55 153.8 113.55 153.7 110.7 L153.7 96.3 Q153.7 93.05 157.05 92.85 L158.85 92.85 Q160.35 92.85 161.1 93.45 161.9 94.05 162.25 95.5 L164.85 105.4 164.95 105.4 167.55 95.5 Q167.95 94.05 168.7 93.45 169.45 92.85 170.95 92.85 L172.75 92.85 Q176.1 93.05 176.15 96.3 M224.4 94.45 Q224.35 95.65 223.6 96.4 222.8 97.2 221.65 97.2 220.5 97.2 219.7 96.4 218.95 95.65 218.9 94.45 218.95 93.3 219.7 92.55 220.5 91.8 221.65 91.75 222.8 91.8 223.6 92.55 224.35 93.3 224.4 94.45 M221.7 98.3 Q224.4 98.25 224.6 101.15 L224.6 110.7 Q224.4 113.6 221.7 113.55 219.0 113.6 218.8 110.7 L218.8 101.15 Q219.0 98.25 221.7 98.3 M213.9 98.6 L215.6 98.6 Q217.3 98.6 217.35 100.3 217.3 102.0 215.6 102.0 L213.9 102.0 213.9 108.65 Q213.95 109.3 214.55 109.3 216.15 109.3 216.75 109.8 217.4 110.3 217.35 111.35 217.4 112.25 216.6 112.9 215.75 113.5 213.35 113.55 208.35 113.55 208.25 108.6 L208.25 102.0 207.2 102.0 Q205.45 102.0 205.4 100.3 205.45 98.6 207.2 98.6 L208.25 98.6 208.25 96.75 Q208.3 93.85 211.05 93.9 213.85 93.85 213.9 96.75 L213.9 98.6 M201.05 92.85 Q203.75 92.8 203.95 95.65 L203.95 110.7 Q203.75 113.6 201.05 113.55 198.35 113.6 198.15 110.7 L198.15 95.65 Q198.35 92.8 201.05 92.85 M103.95 98.3 Q106.65 98.25 106.85 101.15 L106.85 110.7 Q106.65 113.6 103.95 113.55 101.25 113.6 101.05 110.7 L101.05 101.15 Q101.25 98.25 103.95 98.3 M101.95 92.55 Q102.75 91.8 103.9 91.75 105.05 91.8 105.8 92.55 106.6 93.3 106.6 94.45 106.6 95.65 105.8 96.4 105.05 97.2 103.9 97.2 102.75 97.2 101.95 96.4 101.2 95.65 101.15 94.45 101.2 93.3 101.95 92.55 M98.2 101.55 Q98.1 103.15 96.25 103.3 94.95 103.2 93.95 102.4 92.95 101.65 91.0 101.55 89.45 101.55 89.4 102.55 89.35 102.95 89.7 103.2 L91.2 103.7 93.65 104.2 Q98.6 105.15 98.8 108.45 98.85 110.45 97.05 111.95 95.3 113.45 90.8 113.55 87.9 113.55 85.85 112.65 83.8 111.75 83.75 109.95 83.9 108.4 85.8 108.25 86.95 108.35 87.95 109.25 89.0 110.15 91.0 110.3 92.8 110.15 92.8 109.2 92.85 108.8 92.45 108.45 92.1 108.1 90.95 107.85 L89.25 107.5 Q86.1 106.85 84.9 105.75 83.7 104.65 83.75 103.05 83.7 101.3 85.3 99.85 86.9 98.4 91.2 98.3 93.85 98.3 95.95 99.05 98.05 99.85 98.2 101.55 M81.65 101.55 Q81.55 103.15 79.7 103.3 78.4 103.2 77.4 102.4 76.45 101.65 74.45 101.55 72.9 101.55 72.85 102.55 72.85 102.95 73.15 103.2 73.5 103.45 74.65 103.7 L77.1 104.2 Q82.05 105.15 82.25 108.45 82.3 110.45 80.5 111.95 78.75 113.45 74.25 113.55 71.35 113.55 69.3 112.65 67.25 111.75 67.2 109.95 67.35 108.4 69.25 108.25 70.4 108.35 71.4 109.25 72.45 110.15 74.45 110.3 76.25 110.15 76.25 109.2 L75.9 108.45 Q75.55 108.1 74.4 107.85 L72.7 107.5 Q69.55 106.85 68.35 105.75 67.15 104.65 67.2 103.05 67.15 101.3 68.75 99.85 70.35 98.4 74.65 98.3 77.3 98.3 79.45 99.05 81.5 99.85 81.65 101.55 M65.25 111.45 Q65.2 112.55 64.4 113.05 63.6 113.55 62.55 113.55 59.7 113.35 59.6 111.2 58.7 112.45 57.35 113.0 L54.45 113.55 Q52.0 113.55 50.5 112.45 49.0 111.4 48.95 108.95 48.85 107.15 50.5 105.95 52.15 104.75 56.4 104.45 59.5 104.4 59.4 103.05 59.4 101.7 57.1 101.65 55.35 101.8 54.4 102.65 53.4 103.5 52.05 103.6 50.25 103.6 50.2 101.85 50.3 100.2 52.25 99.25 54.2 98.3 57.25 98.3 59.75 98.2 62.3 99.1 64.85 99.95 65.05 102.6 L65.05 108.85 65.25 111.45 M133.1 98.3 Q137.8 98.5 139.7 100.75 141.55 103.0 141.45 104.8 141.55 107.35 138.8 107.2 L130.65 107.2 Q130.9 110.05 133.7 110.15 135.25 110.05 136.35 109.3 137.5 108.55 138.8 108.45 139.6 108.45 140.1 109.0 140.6 109.6 140.6 110.3 140.65 111.55 138.9 112.5 137.2 113.5 133.1 113.55 129.55 113.55 127.3 111.7 125.0 109.85 124.9 105.9 125.0 102.0 127.3 100.15 129.55 98.3 133.1 98.3 M131.6 102.25 Q130.8 102.85 130.65 104.3 L136.0 104.3 Q136.0 102.85 135.2 102.25 134.45 101.65 133.35 101.65 132.35 101.65 131.6 102.25 M118.85 99.0 Q119.45 98.3 120.8 98.3 123.25 98.4 123.45 100.7 123.45 101.8 122.9 103.3 L119.9 111.6 Q119.4 112.95 118.5 113.3 L116.1 113.55 113.75 113.3 Q112.85 112.95 112.35 111.6 L109.35 103.3 Q108.75 101.75 108.75 100.7 108.9 98.4 111.4 98.3 112.75 98.3 113.3 98.85 113.85 99.45 114.2 100.9 L116.15 108.25 116.2 108.25 118.05 100.9 Q118.3 99.7 118.85 99.0 M346.9 94.55 Q348.65 96.2 348.55 97.55 348.55 98.5 347.8 99.4 347.0 100.2 345.5 100.3 344.1 100.15 343.3 99.0 342.55 97.9 340.6 97.75 338.95 97.7 337.85 99.0 336.7 100.3 336.7 103.25 336.65 105.85 337.55 107.3 338.45 108.75 340.8 108.75 343.75 108.7 344.35 106.45 L342.8 106.45 Q341.1 106.35 340.9 104.45 340.95 102.35 343.05 102.25 L347.2 102.25 Q348.6 102.25 349.4 103.1 350.2 103.95 350.2 105.3 L350.2 111.0 Q350.2 112.0 349.75 112.8 349.25 113.6 347.95 113.65 345.9 113.45 345.85 111.65 L345.85 111.1 345.8 111.1 Q344.95 112.35 343.35 113.0 L340.05 113.65 Q336.5 113.75 333.45 111.4 330.45 109.1 330.25 103.15 330.45 97.6 333.6 95.15 336.75 92.65 340.35 92.75 345.1 92.9 346.9 94.55 M318.85 100.95 Q318.8 103.1 317.3 103.5 L315.7 103.9 Q314.55 104.15 313.95 104.75 313.3 105.35 313.3 106.75 L313.3 110.7 Q313.1 113.6 310.4 113.55 307.7 113.6 307.5 110.7 L307.5 101.15 Q307.55 99.65 308.3 99.0 309.05 98.3 310.1 98.3 312.5 98.15 312.7 101.25 L312.7 102.35 312.75 102.35 Q314.1 98.35 316.5 98.3 317.8 98.35 318.3 99.15 318.85 99.95 318.85 100.95 M369.45 111.45 Q369.4 112.55 368.6 113.05 367.85 113.55 366.75 113.55 363.9 113.35 363.8 111.2 362.95 112.45 361.6 113.0 360.2 113.55 358.65 113.55 356.2 113.55 354.7 112.45 353.2 111.4 353.2 108.95 353.1 107.15 354.75 105.95 356.4 104.75 360.65 104.45 363.75 104.4 363.65 103.05 363.65 101.7 361.3 101.65 359.55 101.8 358.6 102.65 357.65 103.5 356.25 103.6 354.5 103.6 354.45 101.85 354.5 100.2 356.45 99.25 358.4 98.3 361.5 98.3 364.0 98.2 366.55 99.1 369.1 99.95 369.3 102.6 L369.3 108.85 369.45 111.45 M363.65 106.6 Q362.95 107.2 361.85 107.35 L359.95 107.7 Q359.2 108.0 359.15 108.9 359.35 110.2 360.9 110.3 362.15 110.25 362.85 109.65 363.6 109.05 363.65 108.25 L363.65 106.6 M262.8 98.3 Q265.3 98.2 267.85 99.1 270.4 99.95 270.6 102.6 L270.6 108.85 270.8 111.45 Q270.75 112.55 269.95 113.05 L268.1 113.55 Q265.25 113.35 265.15 111.2 264.25 112.45 262.9 113.0 261.5 113.55 260.0 113.55 257.55 113.55 256.05 112.45 254.55 111.4 254.5 108.95 254.4 107.15 256.05 105.95 257.7 104.75 261.95 104.45 265.05 104.4 264.95 103.05 264.95 101.7 262.65 101.65 260.9 101.8 259.95 102.65 258.95 103.5 257.6 103.6 255.8 103.6 255.75 101.85 255.85 100.2 257.8 99.25 259.75 98.3 262.8 98.3 M251.95 95.65 L251.95 110.7 Q251.75 113.6 249.05 113.55 246.35 113.6 246.15 110.7 L246.15 95.65 Q246.35 92.8 249.05 92.85 251.75 92.8 251.95 95.65 M263.2 107.35 L261.25 107.7 Q260.5 108.0 260.45 108.9 260.65 110.2 262.25 110.3 263.45 110.25 264.2 109.65 264.95 109.05 264.95 108.25 L264.95 106.6 Q264.3 107.2 263.2 107.35 M230.05 98.3 Q232.6 98.5 232.65 100.95 L232.7 100.95 Q233.1 99.55 234.4 98.95 235.7 98.3 236.95 98.3 240.0 98.35 241.75 100.4 243.45 102.45 243.5 105.95 243.55 108.25 242.1 110.8 240.7 113.35 237.1 113.55 234.4 113.45 233.2 111.3 L233.15 111.3 233.15 116.1 Q233.05 119.05 230.3 119.0 227.55 119.05 227.5 116.1 L227.5 101.15 Q227.5 98.3 230.05 98.3 M235.2 108.95 Q236.6 108.95 237.15 108.0 237.75 107.05 237.7 105.75 237.75 104.55 237.25 103.6 236.7 102.6 235.3 102.5 232.95 102.7 233.05 105.9 233.2 108.95 235.2 108.95 M295.25 102.25 Q294.5 102.85 294.35 104.3 L299.7 104.3 Q299.7 102.85 298.9 102.25 298.15 101.65 297.05 101.65 296.05 101.65 295.25 102.25 M296.8 98.3 Q301.5 98.5 303.4 100.75 305.25 103.0 305.15 104.8 305.2 107.35 302.5 107.2 L294.35 107.2 Q294.6 110.05 297.4 110.15 298.95 110.05 300.05 109.3 301.2 108.55 302.5 108.45 303.25 108.45 303.75 109.0 304.25 109.6 304.3 110.3 304.35 111.55 302.6 112.5 300.9 113.5 296.8 113.55 293.25 113.55 291.0 111.7 288.65 109.85 288.6 105.9 288.65 102.0 291.0 100.15 293.25 98.3 296.8 98.3 M284.3 98.3 Q285.4 98.3 286.2 98.9 287.0 99.5 287.05 100.7 L285.95 104.4 282.6 114.1 Q281.6 116.85 279.9 117.75 278.25 118.75 276.4 118.65 272.95 118.6 273.0 116.25 273.1 114.3 275.2 114.45 276.8 114.4 276.65 113.75 L276.4 112.65 273.35 103.95 Q272.35 101.2 272.4 100.7 272.6 98.45 275.25 98.3 277.2 98.25 277.7 100.45 L279.8 108.45 279.85 108.45 281.55 101.55 Q282.25 98.15 284.3 98.3 M23.5 96.3 Q23.5 93.05 26.85 92.85 L28.65 92.85 Q30.15 92.85 30.9 93.45 31.7 94.05 32.05 95.5 L34.65 105.4 34.7 105.4 37.35 95.5 Q37.7 94.05 38.5 93.45 39.25 92.85 40.75 92.85 L42.55 92.85 Q45.9 93.05 45.95 96.3 L45.95 110.7 Q45.8 113.55 43.05 113.55 40.3 113.55 40.15 110.7 L40.15 100.95 40.1 100.95 37.2 111.75 Q36.85 113.7 34.7 113.55 32.55 113.7 32.2 111.75 L29.3 100.95 29.25 100.95 29.25 110.7 Q29.1 113.55 26.35 113.55 23.6 113.55 23.5 110.7 L23.5 96.3 M57.65 107.35 L55.7 107.7 Q54.95 108.0 54.9 108.9 55.1 110.2 56.7 110.3 57.9 110.25 58.65 109.65 59.4 109.05 59.4 108.25 L59.4 106.6 Q58.75 107.2 57.65 107.35" fill="#4680c2" fill-rule="evenodd" stroke="none"/>
  </g>
</svg>
